<?xml version="1.0" encoding="UTF-8" standalone="no"?>
<svg width="110px" height="110px" viewBox="0 0 110 110" version="1.1" xmlns="http://www.w3.org/2000/svg" xmlns:xlink="http://www.w3.org/1999/xlink" xmlns:sketch="http://www.bohemiancoding.com/sketch/ns">
    <!-- Generator: Sketch 3.2.2 (9983) - http://www.bohemiancoding.com/sketch -->
    <title>Artboard 3</title>
    <desc>Created with Sketch.</desc>
    <defs></defs>
    <g id="Page-1" stroke="none" stroke-width="1" fill="none" fill-rule="evenodd" sketch:type="MSPage">
        <g id="Artboard-3" sketch:type="MSArtboardGroup" stroke="#363636" stroke-linecap="square">
            <path d="M22.4160448,16.4998932 L22.4160448,89.6875" id="Line-4" stroke-width="5" sketch:type="MSShapeGroup"></path>
            <path d="M69.6175373,90.6125 L22.4160448,90.6125" id="Line-295" stroke-width="5" sketch:type="MSShapeGroup"></path>
            <path d="M87.4253731,24.5 L23.2313432,24.5" id="Line-18" stroke-width="5" sketch:type="MSShapeGroup"></path>
            <path d="M86.7671404,34.65 L41.2941919,34.65" id="Line-300" stroke-width="5" sketch:type="MSShapeGroup"></path>
            <path d="M40.8246269,43.9 L40.8246269,34.65" id="Line-301" stroke-width="4" sketch:type="MSShapeGroup"></path>
            <path d="M41.2966418,43.9 L60.1772388,43.9" id="Line-302" stroke-width="5" sketch:type="MSShapeGroup"></path>
            <path d="M60.1772388,53.15 L60.1772388,43.9" id="Line-303" stroke-width="5" sketch:type="MSShapeGroup"></path>
            <path d="M60.1772388,53.15 L79.0578358,53.15" id="Line-304" stroke-width="5" sketch:type="MSShapeGroup"></path>
            <path d="M79.5298507,62.4 L79.5298507,53.15" id="Line-305" stroke-width="4" sketch:type="MSShapeGroup"></path>
            <path d="M79.0578358,62.4 L41.2966418,62.4" id="Line-306" stroke-width="5" sketch:type="MSShapeGroup"></path>
            <path d="M41.2966418,53.15 L41.2966418,77.6625" id="Line-307" stroke-width="5" sketch:type="MSShapeGroup"></path>
            <path d="M41.2966418,53.15 L50.7369403,53.15" id="Line-311" stroke-width="5" sketch:type="MSShapeGroup"></path>
            <path d="M22.4160448,53.15 L31.8563433,53.15" id="Line-312" stroke-width="5" sketch:type="MSShapeGroup"></path>
            <path d="M23.3469732,34.65 L31.8563433,34.65" id="Line-317" stroke-width="5" sketch:type="MSShapeGroup"></path>
            <path d="M69.6175373,43.9 L83.7779851,43.9" id="Line-320" stroke-width="5" sketch:type="MSShapeGroup"></path>
            <path d="M69.1455224,42.975 L69.1455224,36.5" id="Line-321" stroke-width="4" sketch:type="MSShapeGroup"></path>
            <path d="M32.3283582,43.9 L32.3283582,53.15" id="Line-313" stroke-width="4" sketch:type="MSShapeGroup"></path>
            <path d="M31.8563433,43.9 L24.3041045,43.9" id="Line-314" stroke-width="5" sketch:type="MSShapeGroup"></path>
            <path d="M31.8563433,62.4 L24.3041045,62.4" id="Line-315" stroke-width="5" sketch:type="MSShapeGroup"></path>
            <path d="M32.3283582,62.4 L32.3283582,71.65" id="Line-318" stroke-width="4" sketch:type="MSShapeGroup"></path>
            <path d="M22.4160448,71.65 L31.8563433,71.65" id="Line-319" stroke-width="5" sketch:type="MSShapeGroup"></path>
            <path d="M60.1772388,80.9 L31.8563433,80.9" id="Line-308" stroke-width="5" sketch:type="MSShapeGroup"></path>
            <path d="M60.6492537,80.9 L60.6492537,71.65" id="Line-309" stroke-width="4" sketch:type="MSShapeGroup"></path>
            <path d="M50.7369403,71.65 L60.1772388,71.65" id="Line-310" stroke-width="5" sketch:type="MSShapeGroup"></path>
            <path d="M88.1944444,24.4963467 L88.1944444,90.500705" id="Line-19" stroke-width="5" sketch:type="MSShapeGroup"></path>
            <path d="M78.5858209,90.6125 L88.0261194,90.6125" id="Line-296" stroke-width="4" sketch:type="MSShapeGroup"></path>
            <path d="M79.0578358,90.5007759 L79.0578358,80.4992189" id="Line-297" stroke-width="5" sketch:type="MSShapeGroup"></path>
            <path d="M69.6175373,89.6875 L69.6175373,72.575" id="Line-298" stroke-width="5" sketch:type="MSShapeGroup"></path>
            <path d="M85.6660448,71.65 L69.6175373,71.65" id="Line-299" stroke-width="5" sketch:type="MSShapeGroup"></path>
            <path d="M77.1268657,92.5 L89.4850746,92.5" id="Line" sketch:type="MSShapeGroup"></path>
            <path d="M22.4160448,15.4999525 L22.4160448,89.6875" id="Line-5" stroke-width="5" sketch:type="MSShapeGroup"></path>
            <path d="M69.6175373,90.6125 L22.4160448,90.6125" id="Line-346" stroke-width="5" sketch:type="MSShapeGroup"></path>
            <path d="M87.4253731,24.5 L23.2313432,24.5" id="Line-21" stroke-width="5" sketch:type="MSShapeGroup"></path>
            <path d="M86.7671404,34.65 L41.2941919,34.65" id="Line-345" stroke-width="5" sketch:type="MSShapeGroup"></path>
            <path d="M40.8246269,43.9 L40.8246269,34.65" id="Line-344" stroke-width="4" sketch:type="MSShapeGroup"></path>
            <path d="M41.2966418,43.9 L60.1772388,43.9" id="Line-343" stroke-width="5" sketch:type="MSShapeGroup"></path>
            <path d="M60.1772388,53.15 L60.1772388,43.9" id="Line-342" stroke-width="5" sketch:type="MSShapeGroup"></path>
            <path d="M60.1772388,53.15 L79.0578358,53.15" id="Line-341" stroke-width="5" sketch:type="MSShapeGroup"></path>
            <path d="M79.5298507,62.4 L79.5298507,53.15" id="Line-340" stroke-width="4" sketch:type="MSShapeGroup"></path>
            <path d="M79.0578358,62.4 L41.2966418,62.4" id="Line-339" stroke-width="5" sketch:type="MSShapeGroup"></path>
            <path d="M41.2966418,53.15 L41.2966418,77.6625" id="Line-338" stroke-width="5" sketch:type="MSShapeGroup"></path>
            <path d="M41.2966418,53.15 L50.7369403,53.15" id="Line-337" stroke-width="5" sketch:type="MSShapeGroup"></path>
            <path d="M22.4160448,53.15 L31.8563433,53.15" id="Line-336" stroke-width="5" sketch:type="MSShapeGroup"></path>
            <path d="M23.3469732,34.65 L31.8563433,34.65" id="Line-335" stroke-width="5" sketch:type="MSShapeGroup"></path>
            <path d="M69.6175373,43.9 L83.7779851,43.9" id="Line-334" stroke-width="5" sketch:type="MSShapeGroup"></path>
            <path d="M69.1455224,42.975 L69.1455224,36.5" id="Line-333" stroke-width="4" sketch:type="MSShapeGroup"></path>
            <path d="M32.3283582,43.9 L32.3283582,53.15" id="Line-332" stroke-width="4" sketch:type="MSShapeGroup"></path>
            <path d="M31.8563433,43.9 L24.3041045,43.9" id="Line-331" stroke-width="5" sketch:type="MSShapeGroup"></path>
            <path d="M31.8563433,62.4 L24.3041045,62.4" id="Line-330" stroke-width="5" sketch:type="MSShapeGroup"></path>
            <path d="M32.3283582,62.4 L32.3283582,71.65" id="Line-329" stroke-width="4" sketch:type="MSShapeGroup"></path>
            <path d="M22.4160448,71.65 L31.8563433,71.65" id="Line-328" stroke-width="5" sketch:type="MSShapeGroup"></path>
            <path d="M60.1772388,80.9 L31.8563433,80.9" id="Line-327" stroke-width="5" sketch:type="MSShapeGroup"></path>
            <path d="M60.6492537,80.9 L60.6492537,71.65" id="Line-326" stroke-width="4" sketch:type="MSShapeGroup"></path>
            <path d="M50.7369403,71.65 L60.1772388,71.65" id="Line-325" stroke-width="5" sketch:type="MSShapeGroup"></path>
            <path d="M88.1944444,24.4963467 L88.1944444,90.500705" id="Line-20" stroke-width="5" sketch:type="MSShapeGroup"></path>
            <path d="M78.5858209,90.6125 L88.0261194,90.6125" id="Line-324" stroke-width="4" sketch:type="MSShapeGroup"></path>
            <path d="M79.0578358,90.5007759 L79.0578358,80.4992189" id="Line-323" stroke-width="5" sketch:type="MSShapeGroup"></path>
            <path d="M69.6175373,89.6875 L69.6175373,72.575" id="Line-322" stroke-width="5" sketch:type="MSShapeGroup"></path>
            <path d="M85.6660448,71.65 L69.6175373,71.65" id="Line-316" stroke-width="5" sketch:type="MSShapeGroup"></path>
            <path d="M77.1268657,92.5 L89.4850746,92.5" id="Line-2" sketch:type="MSShapeGroup"></path>
        </g>
    </g>
</svg>